<?xml version="1.0" standalone="no"?>
<!DOCTYPE svg PUBLIC "-//W3C//DTD SVG 1.1//EN" "http://www.w3.org/Graphics/SVG/1.1/DTD/svg11.dtd" >
<!--
2013-9-30: Created.
-->
<svg>
<metadata>
Created by iconfont
</metadata>
<defs>

<font id="iconfont" horiz-adv-x="1024" >
  <font-face
    font-family="iconfont"
    font-weight="500"
    font-stretch="normal"
    units-per-em="1024"
    ascent="896"
    descent="-128"
  />
    <missing-glyph />
    
    <glyph glyph-name="bianji" unicode="&#58914;" d="M792.62791 4.487454 226.331283 4.487454c-52.126194 0-94.381577 42.305525-94.381577 94.458325L131.949706 665.588283c0 52.150754 42.874483 98.908684 95.000678 98.908684l380.00578 0 0-47.499827L226.94936 716.99714c-26.051329 0-47.821145-25.333992-47.821145-51.408857l0-566.642504c0-26.076912 21.128203-47.228651 47.203068-47.228651l566.296627 0c26.050306 0 51.829436 21.696138 51.829436 47.774073l0 380.004757 47.50085 0 0-380.004757C891.95922 47.337377 844.729545 4.487454 792.62791 4.487454zM498.544035 236.497575c-6.209422-6.183839-13.977339-9.301853-21.969361-10.860349L290.901905 133.777075c-20.904099-9.698896-37.653575 9.055237-29.934776 29.984918l91.785449 185.79659c1.559519 8.016581 4.650927 15.784498 10.861372 21.969361l329.856613 330.080717c16.551978 16.575514 43.393299 16.575514 59.969836 0l74.962296-75.011414c16.57449-16.575514 16.57449-43.443441 0-60.017932L498.544035 236.497575zM301.591361 189.392744c-4.848425-9.771551 4.502547-19.816325 14.942317-14.966876l114.669646 69.445652-60.216453 60.265572L301.591361 189.392744zM393.598868 341.544049l239.35746 239.482303 75.505671-74.467015L468.561164 266.507052C440.431499 294.636716 401.539724 333.553051 393.598868 341.544049zM783.424294 611.580229l-44.977377 45.00296c-8.286734 8.312316-21.720697 8.312316-29.984918 0L664.54886 612.643444l73.898057-76.075653 44.977377 45.00296C791.688515 589.883067 791.688515 603.291448 783.424294 611.580229z"  horiz-adv-x="1024" />

    
    <glyph glyph-name="kehufuwukefu" unicode="&#59032;" d="M233.984 364.544c6.656 0 11.776 5.12 11.776 11.776L245.76 593.408c0 3.072-1.536 6.144-3.584 8.704 51.712 97.792 155.648 160.256 268.8 160.256s217.088-62.464 268.8-160.768c-2.048-2.048-3.584-5.12-3.584-8.192l0-217.088c0-6.656 5.12-11.776 11.776-11.776 67.584 0 122.368 53.76 122.368 120.32 0 41.984-22.528 81.408-59.392 102.912-51.2 140.288-187.904 234.496-340.48 234.496S221.696 728.064 169.472 587.776C133.12 565.76 110.592 526.848 110.592 484.864 111.104 418.304 166.4 364.544 233.984 364.544zM755.712 262.144c-4.608 2.048-9.728 1.536-13.312-2.048-62.976-57.856-144.896-89.6-231.424-89.6-86.016 0-168.448 31.744-231.424 89.088-3.584 3.072-8.704 4.096-13.312 2.048-123.904-62.464-192.512-170.496-192.512-304.128 0-6.656 5.12-11.776 11.776-11.776l853.504 0c6.656 0 11.776 5.12 11.776 11.776C950.272 91.648 881.152 199.68 755.712 262.144zM885.248 3.584 141.824 3.584c13.824 90.624 76.288 156.672 129.536 187.904 71.68-51.712 147.456-74.752 244.224-74.752 84.48 0 178.176 31.744 240.64 81.408C825.856 157.696 878.592 76.8 885.248 3.584zM510.976 713.216c-138.752 0-251.904-110.592-251.904-246.784s113.152-247.296 251.904-247.296 251.392 111.104 251.392 247.296C762.368 602.624 649.728 713.216 510.976 713.216zM699.392 466.944c0-101.888-84.48-184.32-188.416-184.32s-188.416 82.944-188.416 184.32c0 99.84 86.528 184.32 188.416 184.32C614.4 651.264 699.392 568.832 699.392 466.944z"  horiz-adv-x="1024" />

    
    <glyph glyph-name="tuijian" unicode="&#58922;" d="M512.922 854.23l-66.466-92.314-96.007 60.927-24.001-112.623-112.623 20.31 20.31-112.623-112.623-24.001 60.927-96.007-92.314-66.466 92.314-64.62-60.927-96.007 112.623-25.849-20.31-110.777 112.623 18.463 24.001-110.777 96.007 60.927 66.466-92.314 64.62 92.314 96.007-60.927 25.849 110.777 110.777-18.463-18.463 110.777 110.777 25.849-60.927 96.007 92.314 64.62-92.314 66.466 60.927 96.007-110.777 24.001 18.463 112.623-110.777-20.31-25.849 112.623-96.007-60.927-64.62 92.314zM402.147 433.276v-240.016h-36.925v190.166c-22.155-25.847-46.158-49.85-70.159-70.159-9.233 12.924-16.615 24.001-22.155 31.387 48.003 40.618 92.314 90.468 127.393 149.548h-112.623v35.079h131.086c5.539 7.386 9.233 14.771 12.924 22.155h36.925c-3.692-7.386-7.386-14.771-11.078-22.155h284.327v-35.079h-300.944c-12.924-20.309-25.847-42.464-38.772-60.927zM749.247 315.116h-127.393v-64.62c0-38.772-18.463-57.235-53.543-57.235-20.309 0-48.003 0-84.929 0-1.847 12.924-3.692 25.849-5.539 40.618 29.54-3.692 57.235-3.692 81.236-3.692 16.617 0 25.849 7.386 25.849 25.849v59.081h-145.856v33.233h145.856v24.001l70.159 46.158h-190.167v33.233h251.093v-33.233l-94.161-59.081v-11.078h127.393v-33.233zM749.247 588.364h-127.393v-35.078h-36.925v35.078h-134.779v-31.387h-36.925v31.387h-127.393v33.233h127.393v42.464h36.925v-42.464h134.779v44.311h36.925v-44.311h127.393v-33.233z"  horiz-adv-x="1024" />

    
    <glyph glyph-name="pin" unicode="&#58626;" d="M957.74 384.97c0-246.711-199.998-446.709-446.708-446.709-246.712 0-446.711 199.998-446.711 446.709s199.998 446.71 446.711 446.71c246.709 0 446.708-199.999 446.708-446.71zM329.537 696.896c-16.001-1.612-23.984-8.807-23.984-21.586v-93.536h-52.764c-23.984-16.001-23.984-32.79 0-50.366h52.764v-146.301c-19.187-9.593-40.772-19.187-64.756-28.78-14.391-6.409-20.799-16.788-19.187-31.179 6.371-16.002 16.788-21.586 31.179-16.788s29.567 11.166 45.569 19.187c3.186 1.573 5.584 3.185 7.195 4.797v-148.7c1.575-17.576-12.816-23.16-43.17-16.788-14.391 3.221-23.196-1.575-26.382-14.391 0-15.966 6.371-26.382 19.187-31.179 67.154-11.168 99.907 9.593 98.333 62.358v172.683c1.575 1.573 3.973 3.185 7.195 4.797 19.187 11.167 31.966 19.187 38.374 23.983 11.168 9.593 13.567 19.974 7.195 31.179-8.019 11.167-18.399 13.566-31.179 7.195-9.593-6.408-16.788-11.205-21.586-14.391l0 122.318h38.374c23.984 17.575 23.984 34.365 0 50.366h-38.374v93.536c0.002 12.779-8.017 19.974-23.982 21.586zM408.683 358.726c0-14.391 6.372-21.586 19.187-21.586h59.96c-6.408-68.766-30.391-129.513-71.952-182.276-9.593-14.391-8.019-26.382 4.797-35.975 14.391-6.372 27.17-2.399 38.374 11.992 41.56 57.561 67.154 126.288 76.748 206.261h129.513v-201.463c0-15.966 7.983-24.771 23.984-26.382 15.966 1.611 23.984 10.417 23.984 26.382l0 201.462h74.349c11.168 0 17.576 7.195 19.187 21.586-1.611 14.39-8.019 21.585-19.187 21.585h-74.349v165.488h62.358c22.373 14.391 22.373 28.78 0 43.171h-88.74c7.983 7.982 17.576 23.984 28.78 47.967 4.797 7.982 7.983 13.566 9.593 16.788 3.186 12.779-0.824 22.373-11.992 28.78-12.815 6.371-22.408 3.972-28.78-7.195-14.391-30.392-31.179-58.386-50.366-83.943h-79.147c3.186 6.371 1.575 15.178-4.797 26.382-14.391 23.984-25.595 42.346-33.578 55.162-9.593 12.779-20.798 15.965-33.578 9.593-12.815-9.593-15.213-20.799-7.195-33.578 12.779-17.613 25.559-36.8 38.374-57.561h-76.748c-23.984-14.391-23.984-29.605 0-45.569h55.162v-127.114c0-14.391 0-27.207 0-38.374h-64.756c-12.815-0-19.187-7.195-19.187-21.585zM540.594 418.685v127.114h124.715v-165.488h-124.715c0 11.167 0 23.983 0 38.374z"  horiz-adv-x="1024" />

    
    <glyph glyph-name="icon-test" unicode="&#58891;" d="M512 863.676768C246.786586 863.676768 31.789253 648.679434 31.789253 383.467313c0-265.214707 214.997333-480.213333 480.210747-480.213333S992.210747 118.251313 992.210747 383.467313C992.210747 648.679434 777.213414 863.676768 512 863.676768z m0-914.057051c-239.606949 0-433.846303 194.239354-433.846303 433.847596 0 239.605657 194.239354 433.843717 433.846303 433.843717s433.846303-194.239354 433.846303-433.846303c0-239.605657-194.240646-433.84501-433.846303-433.84501zM277.507879 521.967192c-60.397899-2.46303-97.450667-33.260606-111.154424-92.388849-6.948202-53.392808 18.51604-81.300687 76.392727-83.76501 22.981818 0 43.11402 6.967596 60.361697 20.941576-9.470707-58.320162-34.461737-83.276283-77.306828-84.085656-22.774949 0.577939-39.086545 10.624-53.997899 24.215272-12.275071 11.18901-29.133576 14.131717-30.832485-1.908363-0.995556-9.389253 6.4-18.805657 6.4-18.805657 17.171394-22.176323 48.268929-34.304 83.907232-34.479838v0.491313c68.827798-0.806788 110.113616 40.66004 125.799434 134.28105 18.150141 93.619717-8.371717 138.775273-79.569454 135.504162z m34.434586-91.15798c-7.449859-32.854626-26.503758-50.099717-57.164283-51.736566-30.103273 1.635556-42.461091 20.112808-37.051475 55.431758 7.871354 35.300848 26.733899 48.35297 56.587636 50.010505 30.10198-1.654949 42.631758-15.940525 37.628122-53.705697z m347.232969 57.897374h-72.679434l6.504727 36.955798H547.422384l-6.504727-36.955798H496.571475l-5.427717-30.796283h44.346181l-12.375919-70.215111-0.443475-2.46303H466.006626l-5.427717-30.79499h52.97002c-13.588687-30.391596-41.420283-57.896081-83.534868-82.534142l-5.427718-30.796283c52.583434 18.902626 89.846949 43.923394 111.789253 75.143758 13.511111-30.392889 45.38699-54.605576 95.58497-72.679434l5.214383 29.562828c-40.822949 24.638061-63.958626 51.739152-69.423838 81.303273h86.228041l5.427717 30.79499h-18.477253l18.245818 103.474424z m-61.361131-103.474424h-29.564121l0.655515 3.695192 12.163879 68.982949H610.633697l-12.819394-72.678141z m-132.884687-48.041374a4596.402424 4596.402424 0 0 0-29.853737-8.622546l19.767596 112.09697h25.867636l5.427717 30.796283h-25.867636l9.777131 55.431758H426.934303l-9.778424-55.431758h-25.86893l-5.427717-30.796283h25.86893l-21.500122-121.951677c-8.371717-0.828768-17.630384-2.059636-27.755313-3.696484l-6.736161-38.185374c37.955232 5.736727 72.543677 15.590141 103.762747 29.562828l5.430303 30.796283zM801.289051 521.967192c-60.399192-2.46303-97.450667-33.260606-111.155718-92.388849-6.948202-53.392808 18.51604-81.300687 76.394021-83.76501 22.980525 0 43.115313 6.967596 60.361697 20.941576-9.470707-58.320162-33.886384-81.335596-76.731475-82.143677-21.995313 0.558545-38.265535 5.80396-52.447677 19.013819-15.296646 14.249374-29.870545 14.964364-29.870545-4.142546 0-6.450424 1.621333-9.116444 5.320404-13.13099 16.972283-23.667071 42.472727-37.251879 81.89802-36.627394l2.459151 1.477818c68.829091-0.809374 105.685333 43.117899 121.372445 136.737617 18.151434 93.619717-6.405172 137.298747-77.600323 134.027636z m34.433292-91.15798c-7.449859-32.854626-26.503758-50.099717-57.165575-51.736566-30.103273 1.635556-42.459798 20.112808-37.051475 55.431758 7.872646 35.300848 26.736485 50.022141 56.588929 51.678384 30.10198-1.654949 42.633051-17.608404 37.628121-55.373576z"  horiz-adv-x="1024" />

    
    <glyph glyph-name="feedback" unicode="&#58923;" d="M512 833.47529297A449.47529297 449.47529297 0 1 1 961.47529297 384 449.47529297 449.47529297 0 0 1 512 833.47529297z m0-846.50097656A397.02480469 397.02480469 0 1 0 909.02480469 384 397.02480469 397.02480469 0 0 0 512-13.024804689999996zM473.17519531 159a32.05019531 32.05019531 0 1 1 64.09951172 0 32.05019531 32.05019531 0 1 1-64.09951172 0zM583.02441406 362.80078125c39.99902345 20.25 89.69941406 45.49921875 89.69941406 113.82451172 0 77.92470703-66.77490234 132.27539063-162.50009765 132.27539062a159.69990234 159.69990234 0 0 1-152.49902344-99.85078125 109.40009766 109.40009766 0 0 1-5.00097656-55.77539062 21.35039062 21.35039062 0 1 1 41.67509765 9.37529297 66.49980469 66.49980469 0 0 0 3.47519533 31.725 116.42519531 116.42519531 0 0 0 112.5 71.52539062c70.45048828 0 119.67539063-36.72509766 119.67539061-89.30039062 0-39.99902345-25.00048828-54.675-66.17548828-75.52441406C528.14902345 382.92509766 483.69921875 360.375 483.69921875 304.59960937000005v-53.09999999a21.35039062 21.35039062 0 1 1 42.67529297 0v53.22568359c0 28.02480469 20.64990234 39.79951172 56.84941406 58.1493164z"  horiz-adv-x="1024" />

    
    <glyph glyph-name="qiandaoliao" unicode="&#58924;" d="M511.416715 385.765203m-509.074367 0a509.074368 509.074368 0 1 1 1018.148735 0 509.074368 509.074368 0 1 1-1018.148735 0ZM511.416715 385.765203m-410.655847 0a410.655847 410.655847 0 1 1 821.311695 0 410.655847 410.655847 0 1 1-821.311695 0ZM416.102906 120.504794c58.757219 82.260515 123.391285 158.645207 170.396855 211.526601 29.379121 29.379121 52.881394 58.757219 76.384691 82.260515l64.633043 64.633043c35.254945 35.254945 76.384691 76.384691 105.763812 88.136339l-35.254945 47.005571c-47.00557-29.379121-94.012164-64.633043-135.14191-88.13634-17.627473-17.627473-41.129746-29.379121-58.757218-41.130769-17.627473-17.627473-35.254945-29.379121-58.757219-47.00557-35.254945-23.503297-76.384691-64.633043-123.391285-99.887988L316.214918 443.671031 186.947809 337.907219 416.102906 120.504794z"  horiz-adv-x="1024" />

    
    <glyph glyph-name="renwu" unicode="&#58893;" d="M875.374 105.801h0.183a392.411 392.411 0 0 1-174.958 328.156 268.032 268.032 0 0 1 52.37 159.817c0 146.724-116.553 265.655-260.352 265.655-143.726 0-260.315-118.93-260.315-265.655 0-59.977 19.492-115.347 52.37-159.817A392.411 392.411 0 0 1 109.714 105.8h0.147v-124.343l-0.074-1.536c0-18.651 14.775-33.682 33.024-33.682a33.353 33.353 0 0 1 32.988 33.646l-0.073 1.572V115.895a324.498 324.498 0 0 0 156.196 268.873 255.963 255.963 0 0 1 160.695-56.65 255.963 255.963 0 0 1 160.695 56.613 324.462 324.462 0 0 0 156.233-268.726v-134.583c-0.036-0.476-0.11-0.988-0.11-1.5 0-18.651 14.775-33.682 33.024-33.682a33.353 33.353 0 0 1 32.988 33.646l-0.073 1.572V105.801zM492.617 400.64c-104.521 0-189.257 86.455-189.257 193.134s84.736 193.133 189.257 193.133 189.294-86.454 189.294-193.133-84.773-193.097-189.294-193.097z"  horiz-adv-x="1024" />

    
    <glyph glyph-name="fangdajing" unicode="&#58778;" d="M321.7 429.3v0.6m0 0M887.9 8.9c-10.7-10.6-28.1-10.6-38.8 0l-175 172.9c14.6 11 28.3 23.1 40.9 36.1l172.8-170.7c10.8-10.6 10.8-27.7 0.1-38.3zM457.7 163.1c-166.5 0-301.5 133.4-301.5 297.8 0 164.5 135 297.8 301.5 297.8s301.5-133.3 301.5-297.8c0-164.4-135-297.8-301.5-297.8z m0 541.5C321.5 704.6 211 595.5 211 461s110.4-243.6 246.7-243.6c136.2 0 246.6 109.1 246.6 243.6 0.1 134.5-110.3 243.6-246.6 243.6z"  horiz-adv-x="1024" />

    
    <glyph glyph-name="shoucangtubiao-" unicode="&#58882;" d="M367.010848 326.79001700000003h-115.593968c-15.894171 0-28.898492 12.823706-28.898492 28.898492 0 15.894171 13.004321 28.898492 28.898492 28.898492h86.605168v86.605168c0 15.894171 13.004321 28.898492 28.898492 28.898492s28.898492-13.004321 28.898492-28.898492v-115.593968c0-15.894171-12.823706-28.808184-28.808184-28.808184z m315.986947-82.089779c-55.90052 0-102.589646-39.103272-114.871505-91.210865h-111.710733c-12.281859 52.197901-58.970985 91.301173-114.871505 91.301173-65.29253 0-118.303201-53.100979-118.303202-118.303201 0-65.29253 53.100979-118.393509 118.303202-118.39351 54.455596 0 99.970721 37.297116 113.607196 87.598554h114.058735c13.636476-50.301438 59.151601-87.508246 113.787812-87.508246 65.202222 0 118.303201 53.100979 118.303202 118.303202-0.090308 65.29253-53.100979 118.212894-118.303202 118.212893z m-341.453743-178.809419c-33.413881 0-60.506217 27.182644-60.506218 60.686833 0 33.413881 27.182644 60.506217 60.506218 60.506218 33.413881 0 60.506217-27.182644 60.506217-60.506218 0-33.504189-27.182644-60.686833-60.506217-60.686833z m341.453743 0c-33.413881 0-60.506217 27.182644-60.506217 60.506218s27.182644 60.506217 60.506217 60.506217c33.413881 0 60.41591-27.182644 60.41591-60.506217s-27.002028-60.506217-60.41591-60.506218z m146.027692 694.015346h-418.937825c-39.645119 0-71.975306-32.23988-71.975306-71.975307v-83.444395l-175.648647-88.321016c-1.264309-0.632155-2.43831-1.354617-3.612311-2.167387-32.601111-22.84787-50.482053-58.609754-50.482053-100.693183V122.78472499999998c0-15.984478 13.004321-28.898492 28.898492-28.898492s28.898492 12.823706 28.898492 28.898492v290.520152c0 22.576947 8.218009 40.096658 24.383102 52.197901l189.556046 95.184408c1.354617 0.632155 2.167387 1.806156 3.25108 2.618926 1.715848 1.264309 3.341388 2.257695 4.876621 3.702619 1.264309 1.354617 2.167387 3.070465 3.070464 4.605697 0.993386 1.535232 1.986771 3.070465 2.709234 4.696005 0.632155 1.896464 0.903078 3.973543 1.264309 6.050622 0.180616 1.444925 0.81277 2.709234 0.81277 4.06385v101.325338c0 7.76647 6.411853 14.178323 14.178323 14.178322H829.025487c15.894171 0 28.898492-13.184937 28.898492-29.350031v-548.168269c0-15.984478 13.004321-28.898492 28.898492-28.898491 15.984478 0 28.898492 13.004321 28.898492 28.898491v548.168269c0 48.314666-38.922656 87.32763-86.695476 87.327631z"  horiz-adv-x="1024" />

    
    <glyph glyph-name="wankeicon-" unicode="&#58968;" d="M526.64-34c-204.28 0-370.47 166.23-370.47 370.5S322.36 707 526.64 707 897.1 540.77 897.1 336.5 730.91-34 526.64-34z m0 705.14C342.09 671.18 192 521 192 336.5s150.09-334.68 334.64-334.68S861.31 152 861.31 336.5 711.18 671.18 526.64 671.18zM710.58 306.31H500.42V565.93h35.79V342.1h174.37v-35.79zM136.28 610.32l-35.53 4.37C116.2 740.56 190.8 798.93 316.8 783.48L312.43 748c-53.06 6.53-94.5-1.52-123.15-23.92s-46.49-60.69-53-113.76zM895.14 610.32c-6.51 53.07-24.34 91.33-53 113.71S772 754.49 719 748l-4.37 35.53c62.85 7.71 113.15-2.8 149.55-31.25s58.78-74.73 66.49-137.55z"  horiz-adv-x="1024" />

    
    <glyph glyph-name="youhuiquan" unicode="&#59232;" d="M187.5 550.8c0 23 18.7 41.7 41.7 41.7h555.4c23 0 41.7-18.7 41.7-41.7v-90.2h33.6V581.2c0 21.9-17.7 39.6-39.6 39.6H195.7c-21.9 0-39.6-17.7-39.6-39.6v-112.3h31.3v81.9zM826.3 302.2V212c0-23-18.7-41.7-41.7-41.7H229.2c-23 0-41.7 18.7-41.7 41.7v95.8h-31.3v-129.4c0-21.9 17.7-39.6 39.6-39.6h624.6c21.9 0 39.6 17.7 39.6 39.6V302.2h-33.7zM156.1 485.4v-35.6c36.3 0 65.8-29.4 65.8-65.8s-29.4-65.8-65.8-65.8v-35.6c56 0 101.3 45.4 101.3 101.3s-45.3 101.5-101.3 101.5zM859.9 313.9c-36.3 0-65.8 29.4-65.8 65.8s29.4 65.8 65.8 65.8V481c-56 0-101.3-45.4-101.3-101.3S804 278.4 859.9 278.4v35.5zM386.7 402.4h-7.5c-7.3 0-13.2 5.9-13.2 13.2v60.9c0 7.3 5.9 13.2 13.2 13.2h7.5c7.3 0 13.2-5.9 13.2-13.2v-60.9c0-7.3-5.9-13.2-13.2-13.2zM386.7 533.4h-7.5c-7.3 0-13.2 5.9-13.2 13.2v60.9c0 7.3 5.9 13.2 13.2 13.2h7.5c7.3 0 13.2-5.9 13.2-13.2v-60.9c0-7.3-5.9-13.2-13.2-13.2zM386.7 271.3h-7.5c-7.3 0-13.2 5.9-13.2 13.2v60.9c0 7.3 5.9 13.2 13.2 13.2h7.5c7.3 0 13.2-5.9 13.2-13.2v-60.9c0-7.3-5.9-13.2-13.2-13.2zM386.7 140.3h-7.5c-7.3 0-13.2 5.9-13.2 13.2v60.9c0 7.3 5.9 13.2 13.2 13.2h7.5c7.3 0 13.2-5.9 13.2-13.2v-60.9c0-7.3-5.9-13.2-13.2-13.2zM704.1 340.2c-58.1 26.4-68.9 50.6-68.9 50.6h64.5v12.4H568.2c12.5 19.6 13.9 31.9 13.9 31.9h104.7V449h-44.4c4.3 1.9 20.8 34.7 20.8 34.7l-20.8-0.5c-1.3-8.8-19.6-34.3-19.6-34.3h-34.3l12 43.1H582c-2.3-18.1-14.4-43.1-14.4-43.1h-23.1l-16 37h-20.1l13.6-37h-38v-14.8h78.1c-5.6-14.8-14.1-27.4-14.1-27.4h-76.4v-15.9h64.7c-22.1-32.3-71.6-54.1-71.6-54.1l12.7-12.3c3.2 0 39.4 21.3 39.4 21.3h39.8c-7.5-46.3-70.3-70.4-70.3-70.4l17.1-12c65.2 23.6 73.7 81.5 73.7 81.5s22.7 2.8 38.9 0.9 14.5-7.9 14.5-35.2-24.1-25.5-24.1-25.5h-30.2l3.7-13.8s26.5-2.9 50.6 0c33 10.3 20.8 74.9 20.8 74.9 15.8-12 40.5-24.5 40.5-24.5l12.3 18.6zM535 360.4s24.4 28.3 25.3 30.4c0.9 2.1 49.5 0.9 49.5 0.9s22.5-29.2 25.4-31.4H535z"  horiz-adv-x="1024" />

    
    <glyph glyph-name="dingwei" unicode="&#58627;" d="M512.09668625 563.88658219a99.58288406 99.58288406 0 1 0-70.78783313-29.39494782A99.58288406 99.58288406 0 0 0 512.09668625 563.88658219m0 59.98968937a160.17247031 160.17247031 0 1 1 113.38051313-46.79195812A158.97267656 158.97267656 0 0 1 512.09668625 623.8762715600001zM786.84946344 747.45503156a382.13432062 382.13432062 0 0 1-549.50555344 0 404.33050594 404.33050594 0 0 1 0-562.10338875L512.09668625-96l274.75277719 281.35164281a404.33050594 404.33050594 0 0 1 0 562.10338875z m-41.39288532-522.51019406l-233.35989187-239.95875656-233.35989094 239.95875656a342.54112594 342.54112594 0 0 0 0 476.91802969 325.14411562 325.14411562 0 0 0 466.71978282 0 342.54112594 342.54112594 0 0 0 0-476.91802969z"  horiz-adv-x="1024" />

    
    <glyph glyph-name="dingdan" unicode="&#58884;" d="M328.386207 486.4h368.993103v-42.372414H328.386207v42.372414z m0-183.613793h225.986207V260.41379300000006H328.386207v42.372414z m450.206896-268.358621H245.406897c-10.593103 0-21.186207 1.765517-31.779311 7.062069-10.593103 3.531034-19.42069 10.593103-26.482758 17.655173-7.062069 7.062069-14.124138 15.889655-17.655173 26.482758-3.531034 10.593103-7.062069 21.186207-7.062069 31.779311V671.77931c0 10.593103 1.765517 21.186207 7.062069 31.779311 3.531034 10.593103 10.593103 19.42069 17.655173 26.482758 7.062069 7.062069 15.889655 14.124138 26.482758 17.655173 10.593103 3.531034 21.186207 7.062069 31.779311 7.062069h81.213793v-40.606897h-81.213793c-22.951724 0-40.606897-17.655172-40.606897-40.606896V119.172414c0-22.951724 17.655172-40.606897 40.606897-40.606897h533.186206c22.951724 0 40.606897 17.655172 40.606897 40.606897V671.77931c0 22.951724-17.655172 40.606897-40.606897 40.606897h-81.213793V752.993103h81.213793c10.593103 0 21.186207-1.765517 31.779311-7.062069 10.593103-3.531034 19.42069-10.593103 26.482758-17.655172 7.062069-7.062069 14.124138-15.889655 17.655173-26.482759 3.531034-10.593103 7.062069-21.186207 7.062069-31.77931v-554.372414c0-10.593103-1.765517-21.186207-7.062069-31.77931-3.531034-10.593103-10.593103-19.42069-17.655173-26.482759-7.062069-7.062069-15.889655-14.124138-26.482758-17.655172-10.593103-1.765517-21.186207-5.296552-31.779311-5.296552zM716.8 631.172414H307.2V763.5862070000001c0 28.248276 22.951724 51.2 51.2 51.2h52.965517c19.42069 37.075862 58.262069 61.793103 100.634483 61.793103s81.213793-24.717241 100.634483-61.793103h52.965517c28.248276 0 51.2-22.951724 51.2-51.2V631.172414z m-368.993103 40.606896h328.386206V763.5862070000001c0 5.296552-5.296552 10.593103-10.593103 10.593103h-81.213793l-5.296552 14.124138c-10.593103 28.248276-37.075862 47.668966-67.089655 47.668966s-58.262069-19.42069-67.089655-47.668966l-5.296552-14.124138h-81.213793c-5.296552 0-10.593103-5.296552-10.593103-10.593103v-91.806897z"  horiz-adv-x="1024" />

    
    <glyph glyph-name="yiwancheng" unicode="&#58657;" d="M603.136 666.624h-226.645333c-22.186667 0-39.936 18.090667-39.936 39.936V818.858667c0 22.186667 18.090667 39.936 39.936 39.936h226.645333c22.186667 0 39.936-18.090667 39.936-39.936v-112.298667c0-21.845333-18.090667-39.936-39.936-39.936z m-226.645333 180.906667c-15.701333 0-28.672-12.970667-28.672-28.672v-112.298667c0-15.701333 12.970667-28.672 28.672-28.672h226.645333c15.701333 0 28.672 12.970667 28.672 28.672V818.858667c0 15.701333-12.970667 28.672-28.672 28.672h-226.645333zM898.730667 686.762667h-10.24v-689.152c0-22.186667-18.090667-39.936-39.936-39.936h-692.906667v-14.336c0-18.773333 15.36-34.133333 34.133333-34.133334h708.949334c18.773333 0 34.133333 15.36 34.133333 34.133334V652.288c0 18.773333-15.36 34.474667-34.133333 34.474667zM888.490667 704.853333c0 22.186667-18.090667 39.936-39.936 39.936h-165.205334-0.341333c-3.072 0-5.802667-2.730667-5.802667-5.802666s2.730667-5.802667 5.802667-5.802667h165.546667c15.701333 0 28.672-12.970667 28.672-28.672v-18.090667h11.264V704.853333zM131.072-31.061333c-15.701333 0-28.672 12.970667-28.672 28.672V704.853333c0 15.701333 12.970667 28.672 28.672 28.672h156.672c3.072 0 5.802667 2.730667 5.802667 5.802667s-2.730667 5.802667-5.802667 5.802667H131.072c-22.186667 0-39.936-18.090667-39.936-39.936v-707.242667c0-22.186667 18.090667-39.936 39.936-39.936h24.576v11.264h-24.576zM888.490667-2.389333V686.762667H877.226667v-689.152c0-15.701333-12.970667-28.672-28.672-28.672h-692.906667v-11.264h692.906667c22.186667 0 39.936 17.749333 39.936 39.936zM462.165333 184.661333c-2.389333-2.730667-6.485333-3.072-9.216-0.682666l-155.648 133.802666c-2.730667 2.389333-3.072 6.485333-0.682666 9.216 2.389333 2.730667 6.485333 3.072 9.216 0.682667l155.648-133.802667c2.730667-2.730667 3.072-6.826667 0.682666-9.216zM453.632 183.637333c2.730667-2.389333 6.826667-2.048 9.216 0.682667l289.792 337.237333c2.389333 2.730667 2.048 6.826667-0.682667 9.216-2.730667 2.389333-6.826667 2.048-9.216-0.682666L452.949333 192.853333c-2.389333-2.730667-2.048-6.826667 0.682667-9.216z"  horiz-adv-x="1024" />

    
    <glyph glyph-name="index" unicode="&#59004;" d="M553.86203002 739.38230896a59.43740844 59.43740844 0 0 1-79.86785887 0L151.037323 432.72161865a29.79286192 29.79286192 0 0 1 39.89685059-44.25361632l5.13542175 4.87586974V73.27917480999997a59.58572388 59.58572388 0 0 1 59.58572388-59.6598816h173.39927672v179.3875122a41.95472718 41.95472718 0 0 0 41.97326661 42.01034547h81.59202576a41.95472718 41.95472718 0 0 0 41.97326659-42.01034547v-179.3875122h177.51502992a59.58572388 59.58572388 0 0 1 59.6042633 59.6598816V389.43205261c13.2371521-11.97647094 32.01759338-11.06803894 43.03001403 1.20506286a29.79286192 29.79286192 0 0 1-2.15057372 42.08450318L553.86203002 739.36376953z"  horiz-adv-x="1024" />

    
    <glyph glyph-name="fenxiang" unicode="&#59011;" d="M842.030933-128H181.9712C81.632-128 0-46.368 0 53.9712V714.0288C0 814.4256 81.5744 896 181.8432 896h200.631467c16.343467-0.002133 29.640533-13.301333 29.6448-29.6448 0.002133-16.347733-13.297067-29.653333-29.6448-29.655467H181.8432c-67.573333 0-122.545067-55.031467-122.545067-122.673066v-660.0576c0-67.6416 55.031467-122.673067 122.673067-122.673067h660.059733c67.6672 0.042667 122.698667 55.1296 122.670934 122.7968v292.309333c0 16.347733 13.301333 29.649067 29.649066 29.649067 16.349867 0 29.649067-13.301333 29.649067-29.649067v-292.305066C1024-46.3104 942.368-128 842.030933-128zM346.984533 100.482133c-16.347733 0-29.6512 13.301333-29.6512 29.6512 0 170.664533 66.461867 331.114667 187.140267 451.7952C625.154133 702.606933 785.6064 769.066667 956.270933 769.066667h0.002134c16.334933-0.0064 29.629867-13.303467 29.636266-29.636267 0.0064-16.349867-13.288533-29.6576-29.636266-29.664-154.833067 0-300.394667-60.292267-409.870934-169.768533-109.476267-109.474133-169.768533-255.035733-169.768533-409.866667 0.002133-16.349867-13.2992-29.649067-29.649067-29.649067zM980.8768 722.7648c-3.394133 0-6.798933 0.590933-10.0864 1.777067L716.6528 826.197333c-14.2208 6.2528-21.2288 22.5984-15.9552 37.207467a29.457067 29.457067 0 0 0 15.287467 16.772267 29.467733 29.467733 0 0 0 22.6688 1.0496l254.005333-101.597867c14.353067-6.308267 21.361067-22.651733 16.087467-37.265067a29.457067 29.457067 0 0 0-15.287467-16.772266 29.563733 29.563733 0 0 0-12.5824-2.826667zM788.456533 534.525867a29.457067 29.457067 0 0 0-21.5104 9.2224c-11.264 11.848533-10.786133 30.651733 1.0624 41.915733l193.405867 188.1152c11.8656 11.281067 30.673067 10.8032 41.937067-1.045333a29.4528 29.4528 0 0 0 8.149333-21.179734 29.4528 29.4528 0 0 0-9.211733-20.738133l-193.442134-188.151467a29.450667 29.450667 0 0 0-20.3904-8.138666z"  horiz-adv-x="1024" />

    
    <glyph glyph-name="zuojiankuohao" unicode="&#58889;" d="M253.68 896l-38.22-40.54 512-477.25-498.1-465.67 37.07-40.54 542.11 506.21L253.68 896z"  horiz-adv-x="1024" />

    
    <glyph glyph-name="left" unicode="&#58638;" d="M256.7 393.1L711.6 826.7999999900001l44.2-46.29999999-408.7-389.7L733-16.100000000000023l-46.4-44.1z"  horiz-adv-x="1024" />

    
    <glyph glyph-name="tuihuo" unicode="&#58918;" d="M674.457084 404.102958H474.690104a9.553999 9.553999 0 0 0-8.945999 13.070999c10.432999 26.812997 32.939997 85.403992 32.319996 87.912991a32.242997 32.242997 0 0 1-8.596999-4.459999c-13.069999-8.946999-29.734997-18.862998-49.320995-30.291997l-6.127999-3.646c-27.472997-16.211998-58.759994-34.749997-86.399992-54.776995-30.277997-21.977998-45.016996-40.387996-45.016996-55.939994 0.168-10.588999 7.950999-21.512998 23.179998-31.945997 40.879996-28.442997 153.588985-89.049991 176.600983-101.12599h0.259c0.827 1.293-25.494998 61.887994-37.569996 89.541991a9.527999 9.527999 0 0 0 8.946999 13.405999h201.75898c35.423997-4.628 102.28899-32.319997 102.28899-103.10299 0-61.409994-53.289995-103.11599-103.10399-103.42599H436.447107a38.668996 38.668996 0 0 1-38.784996-38.784996v-0.828a38.784996 38.784996 0 0 1 38.784996-38.784996h238.656977c8.609999 0 85.235992 1.487 136.056987 53.122994 30.626997 30.949997 45.688996 73.988993 44.848995 127.769988v1.655c0 0.491 1.99 79.107992-49.321995 132.243987-31.285997 32.099997-75.798993 48.325995-132.243987 48.325995z m0 0M1158.105037 615.467937a192.631981 192.631981 0 0 1-28.958997 101.46199L1046.521048 850.309914A96.354991 96.354991 0 0 1 964.426056 895.99991h-769.789925A96.561991 96.561991 0 0 1 112.540139 850.309914L29.296147 717.084927A192.385981 192.385981 0 0 1 0.00015 614.795937v-142.339986a39.559996 39.559996 0 0 1 79.107992 0V590.96794h1000.134903v-601.463941a38.499996 38.499996 0 0 0-38.564997-38.564997H117.855138a38.499996 38.499996 0 0 0-38.565996 38.564997V272.027971a39.559996 39.559996 0 1 1-79.107992 0v-303.54397A96.483991 96.483991 0 0 1 96.691141-127.99999h965.382905a96.483991 96.483991 0 0 1 96.483991 96.483991l-0.453 646.971936z m-1063.999896 54.945995l79.935992 128.442987a38.784996 38.784996 0 0 0 32.772997 18.202999h745.369927a38.539996 38.539996 0 0 0 32.772997-18.202999l79.934992-128.442987z m0 0"  horiz-adv-x="1158" />

    
    <glyph glyph-name="shezhi" unicode="&#59159;" d="M881 384c0 52.4 32.9 96.8 79 114.5-11 43.2-28 83.9-50.2 121.3C864.6 599.7 810 607.9 773 645c-37 37-45.2 91.7-25.1 136.8C710.4 804 669.7 821 626.5 832c-17.8-46.1-62.2-79-114.5-79-52.4 0-96.8 32.9-114.5 79-43.2-11-83.9-28-121.3-50.2 20.1-45.2 11.9-99.8-25.1-136.8-37-37-91.7-45.2-136.8-25.2C92 582.4 75 541.7 64 498.5c46.1-17.8 79-62.2 79-114.5 0-52.4-32.9-96.8-79-114.5 11-43.2 28-83.9 50.2-121.3C159.4 168.3 214 160.1 251 123c37-37 45.2-91.7 25.1-136.8C313.6-36 354.3-53 397.5-64c17.8 46.1 62.2 79 114.5 79 52.4 0 96.8-32.9 114.5-79 43.2 11 83.9 28 121.3 50.2-20.1 45.2-11.9 99.8 25.1 136.8 37 37 91.7 45.2 136.8 25.2C932 185.6 949 226.3 960 269.5c-46.1 17.7-79 62.1-79 114.5zM512 261c-67.9 0-123 55.1-123 123s55.1 123 123 123 123-55.1 123-123-55.1-123-123-123z"  horiz-adv-x="1024" />

    
    <glyph glyph-name="ziyuan" unicode="&#58628;" d="M932.681688-128H196.935576A197.260552 197.260552 0 0 0 0 68.93557599999997V699.064424A197.260552 197.260552 0 0 0 196.935576 896H932.681688a197.260552 197.260552 0 0 0 196.935576-196.935576v-630.128848a197.260552 197.260552 0 0 0-196.935576-196.935576zM196.935576 863.50238A164.762932 164.762932 0 0 1 32.49762 699.064424v-630.128848a164.762932 164.762932 0 0 1 164.437956-164.437956H932.681688a164.762932 164.762932 0 0 1 164.437957 164.437956V699.064424A164.762932 164.762932 0 0 1 932.681688 863.50238zM1129.617264 213.549984H670.750873a120.891146 120.891146 0 0 0-120.56617 120.56617V473.530943a120.891146 120.891146 0 0 0 120.56617 120.566169h458.866391zM670.750873 560.9495400000001A88.06855 88.06855 0 0 1 582.682323 473.530943v-139.739766a88.06855 88.06855 0 0 1 88.06855-87.743573h426.368772v314.901936zM686.999683 404.960965m-43.221835 0a43.221834 43.221834 0 1 1 86.443669 0 43.221834 43.221834 0 1 1-86.443669 0ZM686.999683 338.99079700000004a64.99524 64.99524 0 1 0 64.995239 64.995239 64.99524 64.99524 0 0 0-64.995239-64.995239z m0 86.443668a20.4735 20.4735 0 1 1 20.4735-20.4735 20.4735 20.4735 0 0 1-20.4735 20.4735z"  horiz-adv-x="1129" />

    


  </font>
</defs>
</svg>
